<svg version="1.2" xmlns="http://www.w3.org/2000/svg" viewBox="0 0 1870 460" width="1870" height="460"><style>tspan{white-space:pre}.a{fill:none;stroke:#6b7280;stroke-linecap:round;stroke-linejoin:round;stroke-width:3}.b{font-size: 20px;fill: #6b7280;font-family: "Arial"}.c{fill:#f8fafc;stroke:#6b7280;stroke-width:2.5}.d{font-size: 13px;fill: #000000;font-weight: 400;font-family: "LiberationSans", "Liberation Sans"}.e{font-size: 16px;fill: #374151;font-family: "Arial"}</style><path fill-rule="evenodd" class="a" d="m169 126h110"/><path fill-rule="evenodd" class="a" d="m344 126h70"/><path fill-rule="evenodd" class="a" d="m988 125h30"/><path fill-rule="evenodd" class="a" d="m990 285h30"/><text transform="translate(610.9,32)"><tspan x="0" y="0" class="b">Figure 4 – VMD Cryptographic Verification Flow
</tspan></text><path fill-rule="evenodd" class="c" d="m26 85h138c3.3 0 6 2.7 6 6v68c0 3.3-2.7 6-6 6h-138c-3.3 0-6-2.7-6-6v-68c0-3.3 2.7-6 6-6z"/><text transform="translate(51,119)"><tspan x="0" y="0" class="d">Trust Authority
</tspan></text><text transform="translate(70,134)"><tspan x="0" y="0" class="d">(Issuer)
</tspan></text><path fill-rule="evenodd" class="c" d="m203 86h158c3.3 0 6 2.7 6 6v68c0 3.3-2.7 6-6 6h-158c-3.3 0-6-2.7-6-6v-68c0-3.3 2.7-6 6-6z"/><text transform="translate(247,121)"><tspan x="0" y="0" class="d">VMD Data
</tspan></text><text transform="translate(214,135)"><tspan x="0" y="0" class="d">(Encrypted +
</tspan></text><text transform="translate(290,135)"><tspan x="0" y="0" class="d">Signed)
</tspan></text><path fill-rule="evenodd" class="c" d="m401 85h158c3.3 0 6 2.7 6 6v68c0 3.3-2.7 6-6 6h-158c-3.3 0-6-2.7-6-6v-68c0-3.3 2.7-6 6-6z"/><text transform="translate(434,119)"><tspan x="0" y="0" class="d">User Private Key
</tspan></text><text transform="translate(432,134)"><tspan x="0" y="0" class="d">(Consent Control)
</tspan></text><path fill-rule="evenodd" class="c" d="m401 245h158c3.3 0 6 2.7 6 6v68c0 3.3-2.7 6-6 6h-158c-3.3 0-6-2.7-6-6v-68c0-3.3 2.7-6 6-6z"/><text transform="translate(438,290)"><tspan x="0" y="0" class="d">External Query
</tspan></text><path fill-rule="evenodd" class="c" d="m586 150h158c3.3 0 6 2.7 6 6v68c0 3.3-2.7 6-6 6h-158c-3.3 0-6-2.7-6-6v-68c0-3.3 2.7-6 6-6z"/><text transform="translate(614,194)"><tspan x="0" y="0" class="d">VMD Core Engine
</tspan></text><path fill-rule="evenodd" class="c" d="m826 85h168c3.3 0 6 2.7 6 6v68c0 3.3-2.7 6-6 6h-168c-3.3 0-6-2.7-6-6v-68c0-3.3 2.7-6 6-6z"/><text transform="translate(849,116)"><tspan x="0" y="0" class="d">Zero-Knowledge Proof
</tspan></text><text transform="translate(875,132)"><tspan x="0" y="0" class="d">(ZKP Layer)
</tspan></text><path fill-rule="evenodd" class="c" d="m826 245h168c3.3 0 6 2.7 6 6v68c0 3.3-2.7 6-6 6h-168c-3.3 0-6-2.7-6-6v-68c0-3.3 2.7-6 6-6z"/><text transform="translate(854,280)"><tspan x="0" y="0" class="d">Selective Disclosure
</tspan></text><text transform="translate(873,295)"><tspan x="0" y="0" class="d">(BBS+ Proof)
</tspan></text><path fill-rule="evenodd" class="c" d="m1036 150h168c3.3 0 6 2.7 6 6v68c0 3.3-2.7 6-6 6h-168c-3.3 0-6-2.7-6-6v-68c0-3.3 2.7-6 6-6z"/><text transform="translate(1081,184)"><tspan x="0" y="0" class="d">Derived Result
</tspan></text><text transform="translate(1083,199)"><tspan x="0" y="0" class="d">(e.g. Over 21)
</tspan></text><path fill-rule="evenodd" class="c" d="m1226 150h148c3.3 0 6 2.7 6 6v68c0 3.3-2.7 6-6 6h-148c-3.3 0-6-2.7-6-6v-68c0-3.3 2.7-6 6-6z"/><text transform="translate(1243,185)"><tspan x="0" y="0" class="d">Signed Response +
</tspan></text><text transform="translate(1282,199)"><tspan x="0" y="0" class="d">Proof
</tspan></text><path fill-rule="evenodd" class="c" d="m1416 150h118c3.3 0 6 2.7 6 6v68c0 3.3-2.7 6-6 6h-118c-3.3 0-6-2.7-6-6v-68c0-3.3 2.7-6 6-6z"/><text transform="translate(1454,194)"><tspan x="0" y="0" class="d">Verifier
</tspan></text><path fill-rule="evenodd" class="c" d="m1561 70h143c3.3 0 6 2.7 6 6v58c0 3.3-2.7 6-6 6h-143c-3.3 0-6-2.7-6-6v-58c0-3.3 2.7-6 6-6z"/><text transform="translate(1598.5,101)"><tspan x="0" y="0" class="d">Verify ZK /
</tspan></text><text transform="translate(1598.5,115)"><tspan x="0" y="0" class="d">BBS+ Proof
</tspan></text><path fill-rule="evenodd" class="c" d="m1561 200h143c3.3 0 6 2.7 6 6v58c0 3.3-2.7 6-6 6h-143c-3.3 0-6-2.7-6-6v-58c0-3.3 2.7-6 6-6z"/><text transform="translate(1599.5,230)"><tspan x="0" y="0" class="d">Verify Issuer
</tspan></text><text transform="translate(1607.5,245)"><tspan x="0" y="0" class="d">Signature
</tspan></text><path fill-rule="evenodd" class="c" d="m1736 130h118c3.3 0 6 2.7 6 6v68c0 3.3-2.7 6-6 6h-118c-3.3 0-6-2.7-6-6v-68c0-3.3 2.7-6 6-6z"/><text transform="translate(1753,173)"><tspan x="0" y="0" class="d">Trusted Result
</tspan></text><path fill-rule="evenodd" class="c" d="m821 370h168c3.3 0 6 2.7 6 6v58c0 3.3-2.7 6-6 6h-168c-3.3 0-6-2.7-6-6v-58c0-3.3 2.7-6 6-6z"/><text transform="translate(854,402)"><tspan x="0" y="0" class="d">Legal / Emergency
</tspan></text><text transform="translate(879,416)"><tspan x="0" y="0" class="d">Override
</tspan></text><path fill-rule="evenodd" class="c" d="m1036 370h168c3.3 0 6 2.7 6 6v58c0 3.3-2.7 6-6 6h-168c-3.3 0-6-2.7-6-6v-58c0-3.3 2.7-6 6-6z"/><text transform="translate(1053,401)"><tspan x="0" y="0" class="d">Threshold Cryptography
</tspan></text><text transform="translate(1075,416)"><tspan x="0" y="0" class="d">(Multi-Party Keys)
</tspan></text><path fill-rule="evenodd" class="c" d="m1226 370h148c3.3 0 6 2.7 6 6v58c0 3.3-2.7 6-6 6h-148c-3.3 0-6-2.7-6-6v-58c0-3.3 2.7-6 6-6z"/><text transform="translate(1243,401)"><tspan x="0" y="0" class="d">Controlled Access to
</tspan></text><text transform="translate(1274,416)"><tspan x="0" y="0" class="d">Raw Data
</tspan></text><path fill-rule="evenodd" class="c" d="m1416 355h118c3.3 0 6 2.7 6 6v58c0 3.3-2.7 6-6 6h-118c-3.3 0-6-2.7-6-6v-58c0-3.3 2.7-6 6-6z"/><text transform="translate(1450,387)"><tspan x="0" y="0" class="d">Audit Log
</tspan></text><text transform="translate(1438,403)"><tspan x="0" y="0" class="d">(Append-Only)
</tspan></text><text transform="translate(65,73)"><tspan x="0" y="0" class="e">BBS+ Signature on Full Credential
</tspan></text><path fill-rule="evenodd" class="a" d="m565 125h7v60h8"/><path fill-rule="evenodd" class="a" d="m1014 125h7v60h8"/><path fill-rule="evenodd" class="a" d="m565 285h7v-90h8"/><path fill-rule="evenodd" class="a" d="m1014 285h7v-90h8"/><path fill-rule="evenodd" class="a" d="m750 180h35v-55h35"/><path fill-rule="evenodd" class="a" d="m750 200h35v85h35"/><path fill-rule="evenodd" class="a" d="m1210 190h10"/><path fill-rule="evenodd" class="a" d="m1380 190h30"/><path fill-rule="evenodd" class="a" d="m1540 175h10v-70h5"/><path fill-rule="evenodd" class="a" d="m1540 205h10v30h5"/><path fill-rule="evenodd" class="a" d="m1710 105h10v65h10"/><path fill-rule="evenodd" class="a" d="m1710 235h10v-45h10"/><path fill-rule="evenodd" class="a" d="m995 405h35"/><path fill-rule="evenodd" class="a" d="m1210 405h10"/><path fill-rule="evenodd" class="a" d="m1380 405h15v-15h15"/><path fill-rule="evenodd" class="a" d="m1300 230v90h175v35"/></svg>