<svg version="1.2" xmlns="http://www.w3.org/2000/svg" viewBox="0 0 1200 820" width="1200" height="820"><style>tspan{white-space:pre}.a{font-size: 20px;fill: #6b7280;font-family: "Arial"}.b{fill:#f8fafc;stroke:#6b7280;stroke-width:2.5}.c{font-size: 22px;fill: #111827;font-family: "Arial"}.d{fill:none;stroke:#6b7280;stroke-linecap:round;stroke-linejoin:round;stroke-width:3}</style><text transform="translate(419.3,36)"><tspan x="0" y="0" class="a">Figure 1 – VMD Internal Architecture
</tspan></text><path fill-rule="evenodd" class="b" d="m21 285h193c3.3 0 6 2.7 6 6v98c0 3.3-2.7 6-6 6h-193c-3.3 0-6-2.7-6-6v-98c0-3.3 2.7-6 6-6z"/><text transform="translate(92.4,351)"><tspan x="0" y="0" class="c">User
</tspan></text><path fill-rule="evenodd" class="b" d="m341 285h193c3.3 0 6 2.7 6 6v98c0 3.3-2.7 6-6 6h-193c-3.3 0-6-2.7-6-6v-98c0-3.3 2.7-6 6-6z"/><text transform="translate(361.7,351)"><tspan x="0" y="0" class="c">VMD Instance
</tspan></text><path fill-rule="evenodd" class="b" d="m661 55h193c3.3 0 6 2.7 6 6v98c0 3.3-2.7 6-6 6h-193c-3.3 0-6-2.7-6-6v-98c0-3.3 2.7-6 6-6z"/><text transform="translate(694.6,100)"><tspan x="0" y="0" class="c">Data Layer 
</tspan></text><text transform="translate(694.6,100)"></text><text transform="translate(666.5,128.4)"><tspan x="0" y="0" class="c">(Protected
</tspan></text><text transform="translate(667.5,126.4)"><tspan x="0" y="0" class="c"> 
</tspan></text><text transform="translate(784.5,128.4)"><tspan x="0" y="0" class="c">Data)
</tspan></text><path fill-rule="evenodd" class="b" d="m661 285h193c3.3 0 6 2.7 6 6v98c0 3.3-2.7 6-6 6h-193c-3.3 0-6-2.7-6-6v-98c0-3.3 2.7-6 6-6z"/><text transform="translate(690.1,320)"><tspan x="0" y="0" class="c">Profile Layer
</tspan></text><text transform="translate(690.1,320)"></text><text transform="translate(699.3,346.4)"><tspan x="0" y="0" class="c">(Schema /
</tspan></text><text transform="translate(699.3,346.4)"><tspan x="0" y="0" class="c"> 
</tspan></text><text transform="translate(699.3,346.4)"></text><text transform="translate(706.9,372.8)"><tspan x="0" y="0" class="c">Contract)
</tspan></text><path fill-rule="evenodd" class="b" d="m661 515h193c3.3 0 6 2.7 6 6v98c0 3.3-2.7 6-6 6h-193c-3.3 0-6-2.7-6-6v-98c0-3.3 2.7-6 6-6z"/><text transform="translate(690.8,581)"><tspan x="0" y="0" class="c">Core Engine
</tspan></text><path fill-rule="evenodd" class="b" d="m981 120h193c3.3 0 6 2.7 6 6v98c0 3.3-2.7 6-6 6h-193c-3.3 0-6-2.7-6-6v-98c0-3.3 2.7-6 6-6z"/><text transform="translate(990.1,186)"><tspan x="0" y="0" class="c">Proof Generator
</tspan></text><path fill-rule="evenodd" class="b" d="m981 335h193c3.3 0 6 2.7 6 6v98c0 3.3-2.7 6-6 6h-193c-3.3 0-6-2.7-6-6v-98c0-3.3 2.7-6 6-6z"/><text transform="translate(1007.2,401)"><tspan x="0" y="0" class="c">Audit Logger
</tspan></text><path fill-rule="evenodd" class="b" d="m981 520h193c3.3 0 6 2.7 6 6v98c0 3.3-2.7 6-6 6h-193c-3.3 0-6-2.7-6-6v-98c0-3.3 2.7-6 6-6z"/><text transform="translate(991.1,586)"><tspan x="0" y="0" class="c">Consent Engine
</tspan></text><path fill-rule="evenodd" class="b" d="m981 705h193c3.3 0 6 2.7 6 6v98c0 3.3-2.7 6-6 6h-193c-3.3 0-6-2.7-6-6v-98c0-3.3 2.7-6 6-6z"/><text transform="translate(991.8,771)"><tspan x="0" y="0" class="c">Query Validator
</tspan></text><path fill-rule="evenodd" class="d" d="m220 340h115"/><path fill-rule="evenodd" class="d" d="m540 340h60v-230h55"/><path fill-rule="evenodd" class="d" d="m540 340h115"/><path fill-rule="evenodd" class="d" d="m540 340h60v230h55"/><path fill-rule="evenodd" class="d" d="m860 340h55v-165h60"/><path fill-rule="evenodd" class="d" d="m860 570h55v-180h60"/><path fill-rule="evenodd" class="d" d="m860 570h55v5h60"/><path fill-rule="evenodd" class="d" d="m860 570h55v190h60"/></svg>