<svg version="1.2" xmlns="http://www.w3.org/2000/svg" viewBox="0 0 1740 631" width="1740" height="631"><style>tspan{white-space:pre}.a{font-size: 20px;fill: #6b7280;font-family: "Arial"}.b{fill:#f8fafc;stroke:#6b7280;stroke-width:2.5}.c{font-size: 13px;fill: #000000;font-weight: 400;font-family: "LiberationSans", "Liberation Sans"}.d{fill:none;stroke:#6b7280;stroke-linecap:round;stroke-linejoin:round;stroke-width:3}.e{fill:none;stroke:#22c55e;stroke-linecap:round;stroke-linejoin:round;stroke-width:4}.f{font-size: 16px;fill: #374151;font-family: "Arial"}.g{fill:none;stroke:#ef4444;stroke-linecap:round;stroke-linejoin:round;stroke-width:4}</style><text transform="translate(695.5,27)"><tspan x="0" y="0" class="a">Figure 3 – VMD Profile Interaction Model
</tspan></text><path fill-rule="evenodd" class="b" d="m21 269h158c3.3 0 6 2.7 6 6v68c0 3.3-2.7 6-6 6h-158c-3.3 0-6-2.7-6-6v-68c0-3.3 2.7-6 6-6z"/><text transform="translate(48.5,310.5)"><tspan x="0" y="0" class="c">External Query
</tspan></text><path fill-rule="evenodd" class="b" d="m291 269h163c3.3 0 6 2.7 6 6v68c0 3.3-2.7 6-6 6h-163c-3.3 0-6-2.7-6-6v-68c0-3.3 2.7-6 6-6z"/><text transform="translate(324,312)"><tspan x="0" y="0" class="c">VMD Core Engine
</tspan></text><path fill-rule="evenodd" class="b" d="m546 69h158c3.3 0 6 2.7 6 6v68c0 3.3-2.7 6-6 6h-158c-3.3 0-6-2.7-6-6v-68c0-3.3 2.7-6 6-6z"/><text transform="translate(578,109.5)"><tspan x="0" y="0" class="c">VotePass Profile
</tspan></text><path fill-rule="evenodd" class="b" d="m546 269h158c3.3 0 6 2.7 6 6v68c0 3.3-2.7 6-6 6h-158c-3.3 0-6-2.7-6-6v-68c0-3.3 2.7-6 6-6z"/><text transform="translate(579,312)"><tspan x="0" y="0" class="c">AgePass Profile
</tspan></text><path fill-rule="evenodd" class="b" d="m546 469h158c3.3 0 6 2.7 6 6v68c0 3.3-2.7 6-6 6h-158c-3.3 0-6-2.7-6-6v-68c0-3.3 2.7-6 6-6z"/><text transform="translate(581,513)"><tspan x="0" y="0" class="c">MedPass Profile
</tspan></text><path fill-rule="evenodd" class="b" d="m816 69h158c3.3 0 6 2.7 6 6v68c0 3.3-2.7 6-6 6h-158c-3.3 0-6-2.7-6-6v-68c0-3.3 2.7-6 6-6z"/><text transform="translate(853,111)"><tspan x="0" y="0" class="c">Eligible to Vote?
</tspan></text><path fill-rule="evenodd" class="b" d="m816 269h158c3.3 0 6 2.7 6 6v68c0 3.3-2.7 6-6 6h-158c-3.3 0-6-2.7-6-6v-68c0-3.3 2.7-6 6-6z"/><text transform="translate(872,314)"><tspan x="0" y="0" class="c">Over 21?
</tspan></text><path fill-rule="evenodd" class="b" d="m895 424l85 85-85 85-85-85z"/><text transform="translate(864,512)"><tspan x="0" y="0" class="c">Emergency?
</tspan></text><path fill-rule="evenodd" class="b" d="m1076 69h158c3.3 0 6 2.7 6 6v68c0 3.3-2.7 6-6 6h-158c-3.3 0-6-2.7-6-6v-68c0-3.3 2.7-6 6-6z"/><text transform="translate(1101,110)"><tspan x="0" y="0" class="c">Yes + Authorization
</tspan></text><path fill-rule="evenodd" class="b" d="m1076 269h158c3.3 0 6 2.7 6 6v68c0 3.3-2.7 6-6 6h-158c-3.3 0-6-2.7-6-6v-68c0-3.3 2.7-6 6-6z"/><text transform="translate(1105,303)"><tspan x="0" y="0" class="c">Minimal Response +
</tspan></text><text transform="translate(1144,319)"><tspan x="0" y="0" class="c">Proof
</tspan></text><path fill-rule="evenodd" class="b" d="m1302 401h158c3.3 0 6 2.7 6 6v68c0 3.3-2.7 6-6 6h-158c-3.3 0-6-2.7-6-6v-68c0-3.3 2.7-6 6-6z"/><text transform="translate(1323,443)"><tspan x="0" y="0" class="c">Auto Limited Release
</tspan></text><path fill-rule="evenodd" class="b" d="m1303 536h158c3.3 0 6 2.7 6 6v68c0 3.3-2.7 6-6 6h-158c-3.3 0-6-2.7-6-6v-68c0-3.3 2.7-6 6-6z"/><text transform="translate(1330,580)"><tspan x="0" y="0" class="c">Consent Required
</tspan></text><path fill-rule="evenodd" class="b" d="m1560 536h158c3.3 0 6 2.7 6 6v68c0 3.3-2.7 6-6 6h-158c-3.3 0-6-2.7-6-6v-68c0-3.3 2.7-6 6-6z"/><text transform="translate(1587,580)"><tspan x="0" y="0" class="c">Response + Proof
</tspan></text><path fill-rule="evenodd" class="d" d="m185 309h100"/><path fill-rule="evenodd" class="d" d="m460 309h40v-200h40"/><path fill-rule="evenodd" class="d" d="m460 309h80"/><path fill-rule="evenodd" class="d" d="m460 309h40v200h40"/><path fill-rule="evenodd" class="d" d="m710 109h100"/><path fill-rule="evenodd" class="d" d="m710 309h100"/><path fill-rule="evenodd" class="d" d="m710 509h100"/><path fill-rule="evenodd" class="d" d="m980 109h90"/><path fill-rule="evenodd" class="d" d="m980 309h90"/><path fill-rule="evenodd" class="e" d="m943 469h120v-30h230"/><text transform="translate(1075,460)"><tspan x="0" y="0" class="f">Yes
</tspan></text><path fill-rule="evenodd" class="g" d="m944 548h120v30h230"/><text transform="translate(1077,568)"><tspan x="0" y="0" class="f">No
</tspan></text><path fill-rule="evenodd" class="d" d="m1474 577h85"/></svg>